<?xml version="1.0" standalone="no"?><!DOCTYPE svg PUBLIC "-//W3C//DTD SVG 1.1//EN" "http://www.w3.org/Graphics/SVG/1.1/DTD/svg11.dtd"><svg t="1579233530108" class="icon" viewBox="0 0 1024 1024" version="1.1" xmlns="http://www.w3.org/2000/svg" p-id="4799" xmlns:xlink="http://www.w3.org/1999/xlink" width="200" height="200"><defs><style type="text/css"></style></defs><path d="M128 549.333h256V704H128zM576 320l-448 3.732v150.935h448zM896 256v-90.667C896 146.667 877.333 128 858.667 128h-432v128H896zM128 768v90.667C128 877.333 146.667 896 165.333 896H576V768H128zM384 128H154.134C135.467 128 128 146.667 128 165.333V256h256V128zM643.735 896h218.667C881.068 896 896 881.068 896 866.134V768H640l3.735 128zM643.735 323.732L640 474.667h256V323.732zM426.667 549.333H896V704H426.667z" p-id="4800"></path></svg>