<?xml version="1.0" standalone="no"?><!DOCTYPE svg PUBLIC "-//W3C//DTD SVG 1.1//EN" "http://www.w3.org/Graphics/SVG/1.1/DTD/svg11.dtd"><svg t="1582708452059" class="icon" viewBox="0 0 1051 1024" version="1.1" xmlns="http://www.w3.org/2000/svg" p-id="5607" xmlns:xlink="http://www.w3.org/1999/xlink" width="205.2734375" height="200"><defs><style type="text/css"></style></defs><path d="M981.096966 459.363189h-110.321972L836.986345 40.872459a37.85957 37.85957 0 0 0-17.504962-35.009925 38.266662 38.266662 0 0 0-40.709215 0 40.709215 40.709215 0 0 0-17.912055 35.009925L732.770755 459.363189H318.350947L284.969391 40.872459a38.266662 38.266662 0 0 0-17.912055-35.009925 37.452478 37.452478 0 0 0-56.992901 35.009925l-29.717727 418.49073H68.803459A69.612758 69.612758 0 0 0 0.004886 529.383038v423.375836a69.205665 69.205665 0 0 0 68.391481 70.01985h913.921876a69.205665 69.205665 0 0 0 68.798573-69.205666V529.383038a69.205665 69.205665 0 0 0-69.205665-70.019849zM144.929691 628.713523a34.602833 34.602833 0 1 1 33.788649-35.824109 35.417017 35.417017 0 0 1-33.788649 35.824109z m151.031188-2.849645a34.602833 34.602833 0 1 1-13.026949-66.356021 34.195741 34.195741 0 0 1 34.19574 35.009925 33.788648 33.788648 0 0 1-20.354607 31.346096z m122.127644 2.849645a34.602833 34.602833 0 0 1 0-69.205666 34.602833 34.602833 0 0 1 0 69.205666z m296.770177 300.841098a26.46099 26.46099 0 0 1-52.514887 5.292198v-101.773037a26.46099 26.46099 0 0 1 23.611345-28.903543 26.053898 26.053898 0 0 1 28.903542 23.611345 11.805672 11.805672 0 0 1 0 5.292198z m114.392894 0a26.053898 26.053898 0 0 1-23.611344 28.903543 26.053898 26.053898 0 0 1-28.903543-23.611345v-101.773037a26.46099 26.46099 0 1 1 52.514887-5.292198v101.773037z m114.392894 0a26.46099 26.46099 0 1 1-52.514887 0v-96.480839a26.46099 26.46099 0 1 1 52.514887 0z" p-id="5608"></path></svg>