<?xml version="1.0" standalone="no"?><!DOCTYPE svg PUBLIC "-//W3C//DTD SVG 1.1//EN" "http://www.w3.org/Graphics/SVG/1.1/DTD/svg11.dtd"><svg t="1579233522752" class="icon" viewBox="0 0 1024 1024" version="1.1" xmlns="http://www.w3.org/2000/svg" p-id="4523" xmlns:xlink="http://www.w3.org/1999/xlink" width="200" height="200"><defs><style type="text/css"></style></defs><path d="M213.5 707.3h84.8c11.9 0 21.6-9.7 21.6-21.6v-20.2c0-11.9-9.7-21.6-21.6-21.6h-84.8c-11.9 0-21.6 9.7-21.6 21.6v20.2c0 11.9 9.6 21.6 21.6 21.6zM213.5 834.8h84.8c11.9 0 21.6-9.7 21.6-21.6V793c0-11.9-9.7-21.6-21.6-21.6h-84.8c-11.9 0-21.6 9.7-21.6 21.6v20.2c0 12 9.6 21.6 21.6 21.6zM414.5 707.3h0.7c17.5 0 31.7-14.2 31.7-31.7v-0.1c0-17.5-14.2-31.7-31.7-31.7h-0.7c-17.5 0-31.7 14.2-31.7 31.7v0.1c0.1 17.5 14.2 31.7 31.7 31.7zM414.5 834.8h0.7c17.5 0 31.7-14.2 31.7-31.7v-0.1c0-17.5-14.2-31.7-31.7-31.7h-0.7c-17.5 0-31.7 14.2-31.7 31.7v0.1c0.1 17.6 14.2 31.7 31.7 31.7zM542.5 707.3h0.7c17.5 0 31.7-14.2 31.7-31.7v-0.1c0-17.5-14.2-31.7-31.7-31.7h-0.7c-17.5 0-31.7 14.2-31.7 31.7v0.1c0.1 17.5 14.2 31.7 31.7 31.7zM542.5 834.8h0.7c17.5 0 31.7-14.2 31.7-31.7v-0.1c0-17.5-14.2-31.7-31.7-31.7h-0.7c-17.5 0-31.7 14.2-31.7 31.7v0.1c0.1 17.6 14.2 31.7 31.7 31.7zM669.6 707.3h0.7c17.5 0 31.7-14.2 31.7-31.7v-0.1c0-17.5-14.2-31.7-31.7-31.7h-0.7c-17.5 0-31.7 14.2-31.7 31.7v0.1c0 17.5 14.2 31.7 31.7 31.7zM669.6 834.8h0.7c17.5 0 31.7-14.2 31.7-31.7v-0.1c0-17.5-14.2-31.7-31.7-31.7h-0.7c-17.5 0-31.7 14.2-31.7 31.7v0.1c0 17.6 14.2 31.7 31.7 31.7zM797.6 707.3h0.7c17.5 0 31.7-14.2 31.7-31.7v-0.1c0-17.5-14.2-31.7-31.7-31.7h-0.7c-17.5 0-31.7 14.2-31.7 31.7v0.1c0 17.5 14.2 31.7 31.7 31.7zM797.6 834.8h0.7c17.5 0 31.7-14.2 31.7-31.7v-0.1c0-17.5-14.2-31.7-31.7-31.7h-0.7c-17.5 0-31.7 14.2-31.7 31.7v0.1c0 17.6 14.2 31.7 31.7 31.7z" fill="" p-id="4524"></path><path d="M960.1 577.6L893.9 91.3c-2.2-15.8-15.7-27.6-31.7-27.6H163.9c-15.9 0-29.4 11.7-31.7 27.5L64.1 577.6h1l-1.3 0.8v345.4c0 20.2 16.4 36.6 36.6 36.6h822.9c20.2 0 36.6-16.4 36.6-36.6V578.4l-1.1-0.8h1.3zM361.6 184l-3.5 57.1h116.7l2-65.3h-66.3l101.7-88 101.7 88h-66.3l2 65.3h116.7l-3.5-57.1 141.9 85.5-131 89.6-3.7-59.9H551.5l2.3 76.7h77.5l-119 168.6-119-168.6h77.5l2.3-76.7H354.6l-3.7 59.9-131-89.6L361.6 184z m534.3 712.4h-768V577.6h768v318.8z" fill="" p-id="4525"></path></svg>